<svg xmlns="http://www.w3.org/2000/svg" xmlns:xlink="http://www.w3.org/1999/xlink" width="100" zoomAndPan="magnify" viewBox="0 0 75 33.749998" height="45" preserveAspectRatio="xMidYMid meet" version="1.0"><defs><g/><clipPath id="d37a37fcda"><path d="M 46.9375 5.917969 L 74.480469 5.917969 L 74.480469 33.460938 L 46.9375 33.460938 Z M 46.9375 5.917969 " clip-rule="nonzero"/></clipPath></defs><g clip-path="url(#d37a37fcda)"><path fill="#73e6ff" d="M 74.714844 19.804688 C 74.714844 20.71875 74.625 21.621094 74.449219 22.515625 C 74.269531 23.410156 74.007812 24.277344 73.65625 25.121094 C 73.308594 25.964844 72.878906 26.765625 72.375 27.523438 C 71.867188 28.28125 71.289062 28.980469 70.644531 29.625 C 70 30.273438 69.300781 30.847656 68.542969 31.355469 C 67.78125 31.859375 66.984375 32.289062 66.140625 32.636719 C 65.296875 32.988281 64.429688 33.25 63.535156 33.429688 C 62.640625 33.605469 61.738281 33.695312 60.824219 33.695312 C 59.914062 33.695312 59.007812 33.605469 58.113281 33.429688 C 57.222656 33.25 56.351562 32.988281 55.507812 32.636719 C 54.667969 32.289062 53.867188 31.859375 53.109375 31.355469 C 52.351562 30.847656 51.648438 30.273438 51.003906 29.625 C 50.359375 28.980469 49.78125 28.28125 49.277344 27.523438 C 48.769531 26.765625 48.34375 25.964844 47.992188 25.121094 C 47.644531 24.277344 47.378906 23.410156 47.203125 22.515625 C 47.023438 21.621094 46.9375 20.71875 46.9375 19.804688 C 46.9375 18.894531 47.023438 17.992188 47.203125 17.097656 C 47.378906 16.203125 47.644531 15.332031 47.992188 14.492188 C 48.34375 13.648438 48.769531 12.847656 49.277344 12.089844 C 49.78125 11.332031 50.359375 10.628906 51.003906 9.984375 C 51.648438 9.339844 52.351562 8.761719 53.109375 8.257812 C 53.867188 7.75 54.667969 7.324219 55.507812 6.972656 C 56.351562 6.625 57.222656 6.359375 58.113281 6.183594 C 59.007812 6.003906 59.914062 5.917969 60.824219 5.917969 C 61.738281 5.917969 62.640625 6.003906 63.535156 6.183594 C 64.429688 6.359375 65.296875 6.625 66.140625 6.972656 C 66.984375 7.324219 67.78125 7.75 68.542969 8.257812 C 69.300781 8.761719 70 9.339844 70.644531 9.984375 C 71.289062 10.628906 71.867188 11.332031 72.375 12.089844 C 72.878906 12.847656 73.308594 13.648438 73.65625 14.492188 C 74.007812 15.332031 74.269531 16.203125 74.449219 17.097656 C 74.625 17.992188 74.714844 18.894531 74.714844 19.804688 Z M 74.714844 19.804688 " fill-opacity="1" fill-rule="nonzero"/></g><g fill="#000000" fill-opacity="1"><g transform="translate(2.250758, 14.051596)"><g><path d="M 1.289062 -11.835938 L 4.453125 -11.835938 C 7.605469 -11.835938 10.238281 -9.441406 10.238281 -6.109375 C 10.238281 -2.753906 7.621094 -0.371094 4.453125 -0.371094 L 1.289062 -0.371094 Z M 0.917969 -12.578125 C 0.753906 -12.578125 0.546875 -12.429688 0.546875 -12.207031 L 0.546875 0 C 0.546875 0.164062 0.679688 0.371094 0.917969 0.371094 L 4.453125 0.371094 C 7.988281 0.371094 10.980469 -2.324219 10.980469 -6.109375 C 10.980469 -9.867188 7.976562 -12.578125 4.453125 -12.578125 Z M 3.699219 -2.117188 L 4.128906 -2.117188 C 6.390625 -2.117188 7.945312 -3.863281 7.976562 -6.082031 C 7.976562 -8.316406 6.40625 -10.089844 4.128906 -10.089844 L 3.699219 -10.089844 C 3.460938 -10.089844 3.328125 -9.867188 3.328125 -9.722656 L 3.328125 -2.484375 C 3.328125 -2.25 3.535156 -2.117188 3.699219 -2.117188 Z M 4.070312 -2.855469 L 4.070312 -9.351562 L 4.128906 -9.351562 C 5.976562 -9.351562 7.234375 -7.945312 7.234375 -6.097656 C 7.21875 -4.230469 5.960938 -2.855469 4.128906 -2.855469 Z M 4.070312 -2.855469 "/></g></g></g><g fill="#000000" fill-opacity="1"><g transform="translate(13.227089, 14.051596)"><g><path d="M 3.328125 -11.835938 L 3.328125 -0.371094 L 1.289062 -0.371094 L 1.289062 -11.835938 Z M 4.070312 -12.207031 C 4.070312 -12.355469 3.921875 -12.578125 3.699219 -12.578125 L 0.917969 -12.578125 C 0.753906 -12.578125 0.546875 -12.429688 0.546875 -12.207031 L 0.546875 0 C 0.546875 0.164062 0.679688 0.371094 0.917969 0.371094 L 3.699219 0.371094 C 3.847656 0.371094 4.070312 0.238281 4.070312 0 Z M 4.070312 -12.207031 "/></g></g></g><g fill="#000000" fill-opacity="1"><g transform="translate(17.457776, 14.051596)"><g><path d="M 7.828125 -11.835938 L 12.445312 -0.371094 L 10.269531 -0.371094 L 9.453125 -2.558594 C 9.394531 -2.707031 9.261719 -2.8125 9.113281 -2.8125 L 4.46875 -2.8125 C 4.304688 -2.8125 4.171875 -2.707031 4.113281 -2.558594 L 3.300781 -0.371094 L 1.125 -0.371094 L 5.742188 -11.835938 Z M 8.417969 -12.339844 C 8.359375 -12.472656 8.226562 -12.578125 8.078125 -12.578125 L 5.503906 -12.578125 C 5.355469 -12.578125 5.207031 -12.472656 5.148438 -12.339844 L 0.222656 -0.132812 C 0 0.429688 0.578125 0.371094 0.578125 0.371094 L 3.566406 0.371094 C 3.714844 0.371094 3.847656 0.28125 3.90625 0.132812 L 4.71875 -2.070312 L 8.847656 -2.070312 L 9.660156 0.132812 C 9.722656 0.28125 9.855469 0.371094 10.015625 0.371094 L 13.003906 0.371094 C 13.597656 0.371094 13.347656 -0.132812 13.347656 -0.132812 Z M 8.507812 -5.015625 L 7.117188 -8.566406 C 7.117188 -8.566406 6.671875 -9.234375 6.421875 -8.550781 L 5.058594 -5 C 5.058594 -5 4.824219 -4.511719 5.414062 -4.511719 L 8.167969 -4.511719 C 8.167969 -4.511719 8.714844 -4.453125 8.507812 -5.015625 Z M 7.621094 -5.253906 L 5.949219 -5.253906 L 6.777344 -7.398438 Z M 7.621094 -5.253906 "/></g></g></g><g fill="#000000" fill-opacity="1"><g transform="translate(30.623483, 14.051596)"><g><path d="M 10.652344 -1.628906 C 9.734375 -0.605469 8.375 -0.148438 6.671875 -0.148438 C 3.609375 -0.148438 1.09375 -2.78125 1.09375 -6.097656 C 1.09375 -9.425781 3.460938 -12.058594 6.671875 -12.058594 C 8.582031 -12.058594 9.898438 -11.394531 10.875 -10.34375 L 9.585938 -8.921875 C 8.832031 -9.898438 7.871094 -10.285156 6.835938 -10.285156 C 4.839844 -10.285156 3.359375 -8.34375 3.359375 -6.097656 C 3.359375 -3.875 4.851562 -1.96875 6.835938 -1.96875 C 8.300781 -1.96875 9.855469 -2.929688 9.855469 -4.691406 C 9.855469 -4.914062 9.632812 -5.058594 9.484375 -5.058594 L 7.25 -5.058594 L 6.925781 -6.464844 L 11.941406 -6.464844 L 11.941406 -4.707031 L 11.496094 -0.578125 L 11.261719 -0.710938 L 11.304688 -1.347656 C 11.304688 -1.347656 11.125 -2.128906 10.652344 -1.628906 Z M 10.492188 -0.488281 C 10.503906 -0.371094 10.5625 -0.238281 10.699219 -0.164062 L 11.644531 0.339844 C 12.175781 0.621094 12.175781 0.0429688 12.175781 0.0429688 L 12.664062 -4.644531 C 12.664062 -4.660156 12.679688 -4.675781 12.679688 -4.691406 L 12.679688 -6.835938 C 12.679688 -6.984375 12.53125 -7.207031 12.308594 -7.207031 L 6.464844 -7.207031 C 6.023438 -7.207031 6.082031 -6.835938 6.097656 -6.746094 L 6.597656 -4.601562 C 6.644531 -4.4375 6.792969 -4.320312 6.96875 -4.320312 L 9.070312 -4.320312 C 8.878906 -3.328125 7.902344 -2.707031 6.835938 -2.707031 C 5.371094 -2.707031 4.097656 -4.15625 4.097656 -6.097656 C 4.097656 -8.0625 5.386719 -9.542969 6.835938 -9.542969 C 7.796875 -9.542969 8.582031 -9.1875 9.234375 -8.136719 C 9.5 -7.707031 9.796875 -8.0625 9.824219 -8.09375 L 11.644531 -10.089844 C 11.761719 -10.222656 11.777344 -10.429688 11.660156 -10.5625 C 10.519531 -11.941406 8.90625 -12.796875 6.671875 -12.796875 C 3.003906 -12.796875 0.355469 -9.765625 0.355469 -6.097656 C 0.355469 -2.410156 3.152344 0.59375 6.671875 0.59375 C 8.136719 0.59375 9.441406 0.28125 10.492188 -0.488281 Z M 10.492188 -0.488281 "/></g></g></g><g fill="#000000" fill-opacity="1"><g transform="translate(43.360197, 14.051596)"><g><path d="M 3.328125 -7.574219 L 3.328125 -0.371094 L 1.289062 -0.371094 L 1.289062 -11.835938 L 3.492188 -11.835938 L 8.226562 -4.425781 C 8.300781 -4.320312 8.417969 -4.261719 8.550781 -4.261719 L 8.582031 -4.261719 C 8.804688 -4.261719 8.953125 -4.46875 8.953125 -4.632812 L 8.953125 -11.835938 L 10.992188 -11.835938 L 10.992188 -0.371094 L 8.773438 -0.371094 L 4.039062 -7.769531 C 3.964844 -7.871094 3.847656 -7.945312 3.730469 -7.945312 L 3.699219 -7.945312 C 3.460938 -7.945312 3.328125 -7.722656 3.328125 -7.574219 Z M 4.070312 -6.347656 L 8.257812 0.207031 C 8.332031 0.3125 8.449219 0.371094 8.582031 0.371094 L 11.363281 0.371094 C 11.511719 0.371094 11.734375 0.238281 11.734375 0 L 11.734375 -12.207031 C 11.734375 -12.355469 11.585938 -12.578125 11.363281 -12.578125 L 8.582031 -12.578125 C 8.417969 -12.578125 8.210938 -12.429688 8.210938 -12.207031 L 8.210938 -5.84375 L 4.007812 -12.398438 C 3.9375 -12.503906 3.816406 -12.578125 3.699219 -12.578125 L 0.917969 -12.578125 C 0.753906 -12.578125 0.546875 -12.429688 0.546875 -12.207031 L 0.546875 0 C 0.546875 0.164062 0.679688 0.371094 0.917969 0.371094 L 3.699219 0.371094 C 3.847656 0.371094 4.070312 0.238281 4.070312 0 Z M 4.070312 -6.347656 "/></g></g></g><g fill="#000000" fill-opacity="1"><g transform="translate(55.253699, 14.051596)"><g><path d="M 1.09375 -6.109375 C 1.09375 -9.46875 3.730469 -12.058594 6.878906 -12.058594 C 10.046875 -12.058594 12.652344 -9.46875 12.652344 -6.109375 C 12.652344 -2.722656 10.164062 -0.148438 6.878906 -0.148438 C 3.476562 -0.148438 1.09375 -2.722656 1.09375 -6.109375 Z M 0.355469 -6.109375 C 0.355469 -2.351562 3.046875 0.59375 6.878906 0.59375 C 10.59375 0.59375 13.390625 -2.351562 13.390625 -6.109375 C 13.390625 -9.867188 10.476562 -12.796875 6.878906 -12.796875 C 3.300781 -12.796875 0.355469 -9.867188 0.355469 -6.109375 Z M 3.359375 -6.109375 C 3.359375 -4.1875 4.320312 -2.101562 6.878906 -2.101562 C 9.367188 -2.101562 10.386719 -4.1875 10.386719 -6.109375 C 10.386719 -8.035156 9.308594 -10.121094 6.878906 -10.121094 C 4.453125 -10.121094 3.359375 -8.035156 3.359375 -6.109375 Z M 4.097656 -6.109375 C 4.097656 -7.8125 5 -9.378906 6.878906 -9.378906 C 8.757812 -9.378906 9.648438 -7.8125 9.648438 -6.109375 C 9.648438 -4.378906 8.820312 -2.839844 6.878906 -2.839844 C 4.867188 -2.839844 4.097656 -4.378906 4.097656 -6.109375 Z M 4.097656 -6.109375 "/></g></g></g><g fill="#000000" fill-opacity="1"><g transform="translate(14.043561, 28.290437)"><g><path d="M 7.796875 -12.214844 L 7.796875 -7.347656 L 3.773438 -7.347656 L 3.773438 -12.214844 L 1.078125 -12.214844 L 1.078125 0 L 3.773438 0 L 3.773438 -4.902344 L 7.796875 -4.902344 L 7.796875 0 L 10.671875 0 L 10.671875 -12.214844 Z M 7.796875 -12.214844 "/></g></g></g><g fill="#000000" fill-opacity="1"><g transform="translate(28.538857, 28.290437)"><g><path d="M 8.210938 -12.214844 L 8.210938 -5.15625 C 8.210938 -3.46875 7.707031 -2.515625 5.855469 -2.515625 C 4.023438 -2.515625 3.503906 -3.46875 3.503906 -5.15625 L 3.503906 -12.214844 L 0.808594 -12.214844 L 0.808594 -4.761719 C 0.808594 -1.507812 2.675781 0.179688 5.855469 0.179688 C 9.035156 0.179688 10.90625 -1.507812 10.90625 -4.761719 L 10.90625 -12.214844 Z M 8.210938 -12.214844 "/></g></g></g><g fill="#000000" fill-opacity="1"><g transform="translate(42.998232, 28.290437)"><g><path d="M 6.96875 -3.574219 C 6.96875 -2.765625 6.289062 -2.101562 5.480469 -2.101562 L 3.773438 -2.101562 L 3.773438 -5.046875 L 5.480469 -5.046875 C 6.289062 -5.046875 6.96875 -4.367188 6.96875 -3.574219 Z M 6.125 -8.675781 C 6.125 -7.90625 5.480469 -7.257812 4.707031 -7.257812 L 3.773438 -7.257812 L 3.773438 -10.097656 L 4.707031 -10.097656 C 5.480469 -10.097656 6.125 -9.46875 6.125 -8.675781 Z M 9.71875 -3.503906 C 9.71875 -5.15625 8.605469 -6.25 7.238281 -6.574219 C 8.15625 -6.988281 8.695312 -7.921875 8.695312 -9.160156 C 8.695312 -10.832031 7.367188 -12.214844 5.28125 -12.214844 L 1.078125 -12.214844 L 1.078125 0 L 6.019531 0 C 8.351562 0 9.71875 -1.402344 9.71875 -3.503906 Z M 9.71875 -3.503906 "/></g></g></g><g fill="#000000" fill-opacity="0.4"><g transform="translate(4.866732, 26.405126)"><g><path d="M 0.316406 1.21875 L 0.324219 1.25 C 0.347656 1.34375 0.367188 1.417969 0.40625 1.476562 C 0.4375 1.558594 0.46875 1.585938 0.496094 1.566406 C 0.527344 1.558594 0.578125 1.320312 0.664062 0.855469 C 0.738281 0.40625 0.824219 -0.179688 0.917969 -0.90625 C 0.96875 -1.28125 1.019531 -1.6875 1.074219 -2.132812 C 1.121094 -2.5625 1.175781 -3.007812 1.222656 -3.472656 C 1.300781 -4.179688 1.375 -4.890625 1.449219 -5.609375 C 1.511719 -6.328125 1.574219 -7 1.617188 -7.621094 C 1.65625 -8.082031 1.679688 -8.425781 1.699219 -8.660156 C 2.175781 -8.917969 2.539062 -9.113281 2.777344 -9.242188 C 2.957031 -9.335938 3.144531 -9.441406 3.339844 -9.558594 C 3.527344 -9.664062 3.703125 -9.777344 3.875 -9.890625 C 4.199219 -10.085938 4.480469 -10.261719 4.730469 -10.4375 C 4.964844 -10.613281 5.128906 -10.734375 5.195312 -10.820312 C 5.222656 -10.851562 5.222656 -10.882812 5.21875 -10.90625 C 5.207031 -10.949219 5.136719 -10.964844 5.015625 -10.953125 C 4.8125 -10.945312 4.476562 -10.882812 4 -10.757812 L 3.980469 -10.753906 C 3.695312 -10.679688 3.300781 -10.542969 2.796875 -10.355469 C 2.273438 -10.152344 1.636719 -9.898438 0.902344 -9.59375 C 0.578125 -9.441406 0.292969 -9.324219 0.046875 -9.226562 C -0.195312 -9.117188 -0.40625 -9.015625 -0.578125 -8.9375 C -0.902344 -8.785156 -1.121094 -8.683594 -1.238281 -8.609375 C -1.355469 -8.53125 -1.4375 -8.457031 -1.488281 -8.394531 C -1.589844 -8.257812 -1.609375 -8.128906 -1.578125 -8 C -1.546875 -7.875 -1.46875 -7.792969 -1.324219 -7.761719 C -1.273438 -7.738281 -1.121094 -7.757812 -0.886719 -7.816406 C -0.660156 -7.863281 -0.398438 -7.945312 -0.101562 -8.054688 C 0.183594 -8.140625 0.433594 -8.21875 0.652344 -8.296875 C 0.863281 -8.351562 0.96875 -8.378906 0.992188 -8.375 C 1.003906 -8.367188 0.996094 -8.226562 0.976562 -7.953125 C 0.9375 -7.667969 0.902344 -7.332031 0.851562 -6.957031 C 0.554688 -4.925781 0.359375 -3.191406 0.261719 -1.742188 C 0.160156 -0.289062 0.179688 0.699219 0.316406 1.21875 Z M 0.316406 1.21875 "/></g></g></g><g fill="#000000" fill-opacity="0.4"><g transform="translate(10.074076, 25.054061)"><g><path d="M 1.4375 -4.046875 C 1.542969 -4.289062 1.539062 -4.480469 1.410156 -4.628906 C 1.289062 -4.753906 1.09375 -4.804688 0.855469 -4.765625 L 0.78125 -4.746094 L 0.675781 -4.71875 C 0.613281 -4.691406 0.554688 -4.664062 0.492188 -4.636719 C 0.195312 -4.480469 -0.0859375 -4.25 -0.320312 -3.941406 C -0.566406 -3.628906 -0.742188 -3.300781 -0.851562 -2.976562 C -0.917969 -2.800781 -0.953125 -2.632812 -0.957031 -2.476562 C -0.96875 -2.335938 -0.960938 -2.226562 -0.933594 -2.121094 L -0.914062 -2.046875 C -0.847656 -1.871094 -0.738281 -1.71875 -0.574219 -1.601562 C -0.425781 -1.472656 -0.246094 -1.382812 -0.03125 -1.347656 C 0.195312 -1.292969 0.507812 -1.308594 0.894531 -1.386719 L 1.023438 -1.417969 C 1.359375 -1.507812 1.730469 -1.65625 2.101562 -1.878906 C 2.296875 -1.996094 2.511719 -2.132812 2.726562 -2.300781 C 2.933594 -2.46875 3.148438 -2.636719 3.347656 -2.824219 C 3.714844 -3.144531 4.027344 -3.476562 4.28125 -3.800781 C 4.539062 -4.117188 4.652344 -4.328125 4.632812 -4.445312 L 4.628906 -4.46875 C 4.621094 -4.488281 4.605469 -4.519531 4.597656 -4.539062 C 4.582031 -4.558594 4.566406 -4.574219 4.566406 -4.574219 C 4.546875 -4.570312 4.390625 -4.460938 4.105469 -4.253906 C 3.8125 -4.039062 3.472656 -3.78125 3.089844 -3.46875 C 2.300781 -2.8125 1.664062 -2.386719 1.167969 -2.214844 C 0.671875 -2.027344 0.246094 -1.972656 -0.105469 -2.0625 C -0.253906 -2.117188 -0.347656 -2.203125 -0.390625 -2.328125 C -0.441406 -2.441406 -0.4375 -2.597656 -0.378906 -2.808594 C -0.359375 -2.902344 -0.308594 -2.984375 -0.238281 -3.046875 C -0.171875 -3.097656 -0.0507812 -3.152344 0.128906 -3.210938 C 0.441406 -3.3125 0.722656 -3.441406 0.976562 -3.597656 C 1.21875 -3.753906 1.375 -3.894531 1.4375 -4.046875 Z M 0.414062 -4.019531 C 0.519531 -4.101562 0.605469 -4.160156 0.6875 -4.191406 C 0.75 -4.207031 0.789062 -4.230469 0.832031 -4.238281 L 0.863281 -4.25 C 0.898438 -4.246094 0.921875 -4.242188 0.929688 -4.21875 C 0.933594 -4.199219 0.929688 -4.175781 0.914062 -4.136719 C 0.871094 -4.046875 0.832031 -3.980469 0.777344 -3.933594 C 0.609375 -3.785156 0.464844 -3.691406 0.363281 -3.65625 C 0.269531 -3.621094 0.207031 -3.601562 0.164062 -3.59375 L 0.132812 -3.582031 C 0.101562 -3.574219 0.0859375 -3.582031 0.0820312 -3.605469 C 0.078125 -3.625 0.09375 -3.652344 0.132812 -3.707031 C 0.199219 -3.804688 0.296875 -3.910156 0.414062 -4.019531 Z M 0.414062 -4.019531 "/></g></g></g><g fill="#000000" fill-opacity="0.4"><g transform="translate(15.281421, 23.702997)"><g><path d="M 0.03125 -0.84375 C 0.195312 -0.808594 0.4375 -0.835938 0.746094 -0.917969 C 0.871094 -0.949219 1.011719 -0.984375 1.152344 -1.046875 C 1.660156 -1.222656 2.132812 -1.445312 2.582031 -1.722656 C 2.84375 -1.890625 3.140625 -2.09375 3.46875 -2.3125 C 3.785156 -2.53125 4.105469 -2.773438 4.4375 -3.015625 C 4.816406 -3.308594 5.183594 -3.59375 5.539062 -3.878906 C 5.875 -4.148438 6.152344 -4.386719 6.363281 -4.578125 C 6.472656 -4.675781 6.550781 -4.761719 6.625 -4.839844 C 6.675781 -4.898438 6.707031 -4.949219 6.703125 -4.972656 C 6.664062 -5.109375 6.320312 -5.007812 5.667969 -4.679688 C 5.011719 -4.339844 4.128906 -3.816406 3.046875 -3.109375 C 2.175781 -2.542969 1.535156 -2.148438 1.109375 -1.949219 C 0.679688 -1.734375 0.363281 -1.652344 0.160156 -1.691406 C -0.0273438 -1.722656 -0.144531 -1.828125 -0.195312 -2.019531 C -0.253906 -2.207031 -0.242188 -2.457031 -0.160156 -2.796875 C -0.0429688 -3.253906 0.128906 -3.605469 0.34375 -3.820312 C 0.558594 -4.035156 0.710938 -4.015625 0.816406 -3.773438 C 0.878906 -3.628906 0.949219 -3.582031 1.042969 -3.605469 C 1.128906 -3.628906 1.167969 -3.726562 1.171875 -3.886719 C 1.164062 -4.089844 1.125 -4.246094 1.023438 -4.378906 C 0.921875 -4.5 0.789062 -4.578125 0.625 -4.605469 C 0.507812 -4.621094 0.40625 -4.617188 0.34375 -4.597656 L 0.289062 -4.585938 C 0.210938 -4.542969 0.0859375 -4.453125 -0.0898438 -4.304688 C -0.214844 -4.183594 -0.316406 -4.054688 -0.417969 -3.914062 C -0.523438 -3.753906 -0.617188 -3.59375 -0.695312 -3.414062 C -0.835938 -3.085938 -0.925781 -2.742188 -0.960938 -2.394531 C -0.992188 -2.128906 -0.976562 -1.894531 -0.929688 -1.703125 C -0.910156 -1.640625 -0.894531 -1.578125 -0.867188 -1.515625 C -0.785156 -1.324219 -0.664062 -1.171875 -0.527344 -1.074219 C -0.382812 -0.953125 -0.195312 -0.875 0.03125 -0.84375 Z M 0.03125 -0.84375 "/></g></g></g><g fill="#000000" fill-opacity="0.4"><g transform="translate(22.457395, 21.841165)"><g><path d="M 2.191406 -9.894531 C 2.128906 -9.910156 2.070312 -9.917969 2.023438 -9.929688 C 1.980469 -9.929688 1.933594 -9.929688 1.890625 -9.917969 L 1.847656 -9.90625 C 1.75 -9.859375 1.644531 -9.785156 1.53125 -9.6875 C 1.414062 -9.578125 1.28125 -9.433594 1.136719 -9.257812 C 0.828125 -8.875 0.554688 -8.363281 0.296875 -7.707031 C 0.0351562 -7.050781 -0.1875 -6.339844 -0.371094 -5.566406 C -0.476562 -5.15625 -0.574219 -4.734375 -0.644531 -4.308594 C -0.722656 -3.871094 -0.78125 -3.449219 -0.820312 -3.03125 C -0.898438 -2.378906 -0.933594 -1.769531 -0.929688 -1.195312 C -0.925781 -0.609375 -0.875 -0.101562 -0.765625 0.324219 C -0.753906 0.398438 -0.738281 0.464844 -0.722656 0.527344 C -0.679688 0.683594 -0.652344 0.792969 -0.617188 0.839844 C -0.585938 0.921875 -0.546875 0.945312 -0.484375 0.929688 L -0.472656 0.925781 C -0.398438 0.90625 -0.308594 0.769531 -0.210938 0.539062 C -0.113281 0.3125 0.0703125 -0.164062 0.3125 -0.882812 C 0.378906 -1.070312 0.449219 -1.269531 0.53125 -1.484375 L 0.800781 -2.09375 C 0.964844 -2.464844 1.128906 -2.792969 1.292969 -3.082031 C 1.457031 -3.363281 1.574219 -3.515625 1.636719 -3.542969 C 1.71875 -3.566406 1.777344 -3.558594 1.792969 -3.496094 C 1.8125 -3.429688 1.820312 -3.183594 1.835938 -2.769531 C 1.855469 -2.175781 1.96875 -1.777344 2.183594 -1.5625 C 2.386719 -1.34375 2.691406 -1.308594 3.101562 -1.460938 C 3.519531 -1.589844 3.976562 -1.925781 4.484375 -2.453125 C 4.984375 -2.964844 5.539062 -3.652344 6.128906 -4.527344 C 6.34375 -4.832031 6.441406 -5.015625 6.425781 -5.070312 C 6.421875 -5.089844 6.402344 -5.085938 6.359375 -5.074219 C 6.21875 -5.003906 5.851562 -4.683594 5.273438 -4.113281 C 5.199219 -4.050781 5.0625 -3.890625 4.839844 -3.652344 C 4.609375 -3.410156 4.367188 -3.167969 4.09375 -2.914062 C 3.753906 -2.601562 3.4375 -2.351562 3.125 -2.15625 C 2.804688 -1.949219 2.601562 -1.953125 2.5 -2.175781 C 2.460938 -2.230469 2.441406 -2.351562 2.421875 -2.515625 C 2.394531 -2.667969 2.382812 -2.835938 2.382812 -3.015625 C 2.386719 -3.523438 2.328125 -3.882812 2.203125 -4.097656 C 2.085938 -4.292969 1.886719 -4.355469 1.640625 -4.269531 C 1.476562 -4.203125 1.289062 -4.042969 1.089844 -3.773438 C 0.890625 -3.496094 0.65625 -3.085938 0.386719 -2.554688 C 0.128906 -2.035156 -0.015625 -1.804688 -0.0585938 -1.882812 C -0.0976562 -1.941406 -0.0625 -2.371094 0.0546875 -3.144531 C 0.0703125 -3.261719 0.078125 -3.355469 0.0976562 -3.449219 C 0.109375 -3.542969 0.121094 -3.625 0.148438 -3.699219 C 0.183594 -3.914062 0.238281 -4.085938 0.320312 -4.210938 C 0.390625 -4.328125 0.515625 -4.496094 0.710938 -4.714844 C 0.960938 -5.007812 1.214844 -5.378906 1.472656 -5.828125 C 1.71875 -6.277344 1.9375 -6.730469 2.125 -7.1875 C 2.222656 -7.425781 2.296875 -7.660156 2.359375 -7.890625 C 2.429688 -8.113281 2.480469 -8.308594 2.5 -8.492188 C 2.554688 -8.9375 2.558594 -9.265625 2.515625 -9.46875 C 2.464844 -9.671875 2.359375 -9.8125 2.191406 -9.894531 Z M 1.695312 -9.1875 C 1.75 -9.246094 1.78125 -9.300781 1.816406 -9.332031 C 1.855469 -9.367188 1.882812 -9.382812 1.902344 -9.390625 L 1.914062 -9.394531 C 1.9375 -9.398438 1.949219 -9.390625 1.972656 -9.386719 C 1.988281 -9.367188 2.003906 -9.347656 2.035156 -9.320312 C 2.054688 -9.28125 2.074219 -9.253906 2.085938 -9.210938 C 2.101562 -9.148438 2.109375 -9.082031 2.105469 -9 C 2.101562 -8.851562 2.078125 -8.675781 2.042969 -8.464844 C 1.960938 -8.082031 1.820312 -7.628906 1.621094 -7.125 C 1.414062 -6.617188 1.191406 -6.164062 0.945312 -5.761719 C 0.644531 -5.265625 0.453125 -5.011719 0.378906 -4.992188 C 0.355469 -4.988281 0.355469 -4.988281 0.355469 -4.996094 L 0.347656 -5.019531 C 0.320312 -5.125 0.382812 -5.535156 0.550781 -6.28125 C 0.691406 -6.882812 0.875 -7.472656 1.089844 -8.039062 C 1.308594 -8.589844 1.5 -8.980469 1.695312 -9.1875 Z M 1.695312 -9.1875 "/></g></g></g><g fill="#73e6ff" fill-opacity="1"><g transform="translate(4.262814, 26.050029)"><g><path d="M 0.316406 1.21875 L 0.324219 1.25 C 0.347656 1.34375 0.367188 1.417969 0.40625 1.476562 C 0.4375 1.558594 0.46875 1.585938 0.496094 1.566406 C 0.527344 1.558594 0.578125 1.320312 0.664062 0.855469 C 0.738281 0.40625 0.824219 -0.179688 0.917969 -0.90625 C 0.96875 -1.28125 1.019531 -1.6875 1.074219 -2.132812 C 1.121094 -2.5625 1.175781 -3.007812 1.222656 -3.472656 C 1.300781 -4.179688 1.375 -4.890625 1.449219 -5.609375 C 1.511719 -6.328125 1.574219 -7 1.617188 -7.621094 C 1.65625 -8.082031 1.679688 -8.425781 1.699219 -8.660156 C 2.175781 -8.917969 2.539062 -9.113281 2.777344 -9.242188 C 2.957031 -9.335938 3.144531 -9.441406 3.339844 -9.558594 C 3.527344 -9.664062 3.703125 -9.777344 3.875 -9.890625 C 4.199219 -10.085938 4.480469 -10.261719 4.730469 -10.4375 C 4.964844 -10.613281 5.128906 -10.734375 5.195312 -10.820312 C 5.222656 -10.851562 5.222656 -10.882812 5.21875 -10.90625 C 5.207031 -10.949219 5.136719 -10.964844 5.015625 -10.953125 C 4.8125 -10.945312 4.476562 -10.882812 4 -10.757812 L 3.980469 -10.753906 C 3.695312 -10.679688 3.300781 -10.542969 2.796875 -10.355469 C 2.273438 -10.152344 1.636719 -9.898438 0.902344 -9.59375 C 0.578125 -9.441406 0.292969 -9.324219 0.046875 -9.226562 C -0.195312 -9.117188 -0.40625 -9.015625 -0.578125 -8.9375 C -0.902344 -8.785156 -1.121094 -8.683594 -1.238281 -8.609375 C -1.355469 -8.53125 -1.4375 -8.457031 -1.488281 -8.394531 C -1.589844 -8.257812 -1.609375 -8.128906 -1.578125 -8 C -1.546875 -7.875 -1.46875 -7.792969 -1.324219 -7.761719 C -1.273438 -7.738281 -1.121094 -7.757812 -0.886719 -7.816406 C -0.660156 -7.863281 -0.398438 -7.945312 -0.101562 -8.054688 C 0.183594 -8.140625 0.433594 -8.21875 0.652344 -8.296875 C 0.863281 -8.351562 0.96875 -8.378906 0.992188 -8.375 C 1.003906 -8.367188 0.996094 -8.226562 0.976562 -7.953125 C 0.9375 -7.667969 0.902344 -7.332031 0.851562 -6.957031 C 0.554688 -4.925781 0.359375 -3.191406 0.261719 -1.742188 C 0.160156 -0.289062 0.179688 0.699219 0.316406 1.21875 Z M 0.316406 1.21875 "/></g></g></g><g fill="#73e6ff" fill-opacity="1"><g transform="translate(9.470158, 24.698964)"><g><path d="M 1.4375 -4.046875 C 1.542969 -4.289062 1.539062 -4.480469 1.410156 -4.628906 C 1.289062 -4.753906 1.09375 -4.804688 0.855469 -4.765625 L 0.78125 -4.746094 L 0.675781 -4.71875 C 0.613281 -4.691406 0.554688 -4.664062 0.492188 -4.636719 C 0.195312 -4.480469 -0.0859375 -4.25 -0.320312 -3.941406 C -0.566406 -3.628906 -0.742188 -3.300781 -0.851562 -2.976562 C -0.917969 -2.800781 -0.953125 -2.632812 -0.957031 -2.476562 C -0.96875 -2.335938 -0.960938 -2.226562 -0.933594 -2.121094 L -0.914062 -2.046875 C -0.847656 -1.871094 -0.738281 -1.71875 -0.574219 -1.601562 C -0.425781 -1.472656 -0.246094 -1.382812 -0.03125 -1.347656 C 0.195312 -1.292969 0.507812 -1.308594 0.894531 -1.386719 L 1.023438 -1.417969 C 1.359375 -1.507812 1.730469 -1.65625 2.101562 -1.878906 C 2.296875 -1.996094 2.511719 -2.132812 2.726562 -2.300781 C 2.933594 -2.46875 3.148438 -2.636719 3.347656 -2.824219 C 3.714844 -3.144531 4.027344 -3.476562 4.28125 -3.800781 C 4.539062 -4.117188 4.652344 -4.328125 4.632812 -4.445312 L 4.628906 -4.46875 C 4.621094 -4.488281 4.605469 -4.519531 4.597656 -4.539062 C 4.582031 -4.558594 4.566406 -4.574219 4.566406 -4.574219 C 4.546875 -4.570312 4.390625 -4.460938 4.105469 -4.253906 C 3.8125 -4.039062 3.472656 -3.78125 3.089844 -3.46875 C 2.300781 -2.8125 1.664062 -2.386719 1.167969 -2.214844 C 0.671875 -2.027344 0.246094 -1.972656 -0.105469 -2.0625 C -0.253906 -2.117188 -0.347656 -2.203125 -0.390625 -2.328125 C -0.441406 -2.441406 -0.4375 -2.597656 -0.378906 -2.808594 C -0.359375 -2.902344 -0.308594 -2.984375 -0.238281 -3.046875 C -0.171875 -3.097656 -0.0507812 -3.152344 0.128906 -3.210938 C 0.441406 -3.3125 0.722656 -3.441406 0.976562 -3.597656 C 1.21875 -3.753906 1.375 -3.894531 1.4375 -4.046875 Z M 0.414062 -4.019531 C 0.519531 -4.101562 0.605469 -4.160156 0.6875 -4.191406 C 0.75 -4.207031 0.789062 -4.230469 0.832031 -4.238281 L 0.863281 -4.25 C 0.898438 -4.246094 0.921875 -4.242188 0.929688 -4.21875 C 0.933594 -4.199219 0.929688 -4.175781 0.914062 -4.136719 C 0.871094 -4.046875 0.832031 -3.980469 0.777344 -3.933594 C 0.609375 -3.785156 0.464844 -3.691406 0.363281 -3.65625 C 0.269531 -3.621094 0.207031 -3.601562 0.164062 -3.59375 L 0.132812 -3.582031 C 0.101562 -3.574219 0.0859375 -3.582031 0.0820312 -3.605469 C 0.078125 -3.625 0.09375 -3.652344 0.132812 -3.707031 C 0.199219 -3.804688 0.296875 -3.910156 0.414062 -4.019531 Z M 0.414062 -4.019531 "/></g></g></g><g fill="#73e6ff" fill-opacity="1"><g transform="translate(14.677503, 23.3479)"><g><path d="M 0.03125 -0.84375 C 0.195312 -0.808594 0.4375 -0.835938 0.746094 -0.917969 C 0.871094 -0.949219 1.011719 -0.984375 1.152344 -1.046875 C 1.660156 -1.222656 2.132812 -1.445312 2.582031 -1.722656 C 2.84375 -1.890625 3.140625 -2.09375 3.46875 -2.3125 C 3.785156 -2.53125 4.105469 -2.773438 4.4375 -3.015625 C 4.816406 -3.308594 5.183594 -3.59375 5.539062 -3.878906 C 5.875 -4.148438 6.152344 -4.386719 6.363281 -4.578125 C 6.472656 -4.675781 6.550781 -4.761719 6.625 -4.839844 C 6.675781 -4.898438 6.707031 -4.949219 6.703125 -4.972656 C 6.664062 -5.109375 6.320312 -5.007812 5.667969 -4.679688 C 5.011719 -4.339844 4.128906 -3.816406 3.046875 -3.109375 C 2.175781 -2.542969 1.535156 -2.148438 1.109375 -1.949219 C 0.679688 -1.734375 0.363281 -1.652344 0.160156 -1.691406 C -0.0273438 -1.722656 -0.144531 -1.828125 -0.195312 -2.019531 C -0.253906 -2.207031 -0.242188 -2.457031 -0.160156 -2.796875 C -0.0429688 -3.253906 0.128906 -3.605469 0.34375 -3.820312 C 0.558594 -4.035156 0.710938 -4.015625 0.816406 -3.773438 C 0.878906 -3.628906 0.949219 -3.582031 1.042969 -3.605469 C 1.128906 -3.628906 1.167969 -3.726562 1.171875 -3.886719 C 1.164062 -4.089844 1.125 -4.246094 1.023438 -4.378906 C 0.921875 -4.5 0.789062 -4.578125 0.625 -4.605469 C 0.507812 -4.621094 0.40625 -4.617188 0.34375 -4.597656 L 0.289062 -4.585938 C 0.210938 -4.542969 0.0859375 -4.453125 -0.0898438 -4.304688 C -0.214844 -4.183594 -0.316406 -4.054688 -0.417969 -3.914062 C -0.523438 -3.753906 -0.617188 -3.59375 -0.695312 -3.414062 C -0.835938 -3.085938 -0.925781 -2.742188 -0.960938 -2.394531 C -0.992188 -2.128906 -0.976562 -1.894531 -0.929688 -1.703125 C -0.910156 -1.640625 -0.894531 -1.578125 -0.867188 -1.515625 C -0.785156 -1.324219 -0.664062 -1.171875 -0.527344 -1.074219 C -0.382812 -0.953125 -0.195312 -0.875 0.03125 -0.84375 Z M 0.03125 -0.84375 "/></g></g></g><g fill="#73e6ff" fill-opacity="1"><g transform="translate(21.853477, 21.486067)"><g><path d="M 2.191406 -9.894531 C 2.128906 -9.910156 2.070312 -9.917969 2.023438 -9.929688 C 1.980469 -9.929688 1.933594 -9.929688 1.890625 -9.917969 L 1.847656 -9.90625 C 1.75 -9.859375 1.644531 -9.785156 1.53125 -9.6875 C 1.414062 -9.578125 1.28125 -9.433594 1.136719 -9.257812 C 0.828125 -8.875 0.554688 -8.363281 0.296875 -7.707031 C 0.0351562 -7.050781 -0.1875 -6.339844 -0.371094 -5.566406 C -0.476562 -5.15625 -0.574219 -4.734375 -0.644531 -4.308594 C -0.722656 -3.871094 -0.78125 -3.449219 -0.820312 -3.03125 C -0.898438 -2.378906 -0.933594 -1.769531 -0.929688 -1.195312 C -0.925781 -0.609375 -0.875 -0.101562 -0.765625 0.324219 C -0.753906 0.398438 -0.738281 0.464844 -0.722656 0.527344 C -0.679688 0.683594 -0.652344 0.792969 -0.617188 0.839844 C -0.585938 0.921875 -0.546875 0.945312 -0.484375 0.929688 L -0.472656 0.925781 C -0.398438 0.90625 -0.308594 0.769531 -0.210938 0.539062 C -0.113281 0.3125 0.0703125 -0.164062 0.3125 -0.882812 C 0.378906 -1.070312 0.449219 -1.269531 0.53125 -1.484375 L 0.800781 -2.09375 C 0.964844 -2.464844 1.128906 -2.792969 1.292969 -3.082031 C 1.457031 -3.363281 1.574219 -3.515625 1.636719 -3.542969 C 1.71875 -3.566406 1.777344 -3.558594 1.792969 -3.496094 C 1.8125 -3.429688 1.820312 -3.183594 1.835938 -2.769531 C 1.855469 -2.175781 1.96875 -1.777344 2.183594 -1.5625 C 2.386719 -1.34375 2.691406 -1.308594 3.101562 -1.460938 C 3.519531 -1.589844 3.976562 -1.925781 4.484375 -2.453125 C 4.984375 -2.964844 5.539062 -3.652344 6.128906 -4.527344 C 6.34375 -4.832031 6.441406 -5.015625 6.425781 -5.070312 C 6.421875 -5.089844 6.402344 -5.085938 6.359375 -5.074219 C 6.21875 -5.003906 5.851562 -4.683594 5.273438 -4.113281 C 5.199219 -4.050781 5.0625 -3.890625 4.839844 -3.652344 C 4.609375 -3.410156 4.367188 -3.167969 4.09375 -2.914062 C 3.753906 -2.601562 3.4375 -2.351562 3.125 -2.15625 C 2.804688 -1.949219 2.601562 -1.953125 2.5 -2.175781 C 2.460938 -2.230469 2.441406 -2.351562 2.421875 -2.515625 C 2.394531 -2.667969 2.382812 -2.835938 2.382812 -3.015625 C 2.386719 -3.523438 2.328125 -3.882812 2.203125 -4.097656 C 2.085938 -4.292969 1.886719 -4.355469 1.640625 -4.269531 C 1.476562 -4.203125 1.289062 -4.042969 1.089844 -3.773438 C 0.890625 -3.496094 0.65625 -3.085938 0.386719 -2.554688 C 0.128906 -2.035156 -0.015625 -1.804688 -0.0585938 -1.882812 C -0.0976562 -1.941406 -0.0625 -2.371094 0.0546875 -3.144531 C 0.0703125 -3.261719 0.078125 -3.355469 0.0976562 -3.449219 C 0.109375 -3.542969 0.121094 -3.625 0.148438 -3.699219 C 0.183594 -3.914062 0.238281 -4.085938 0.320312 -4.210938 C 0.390625 -4.328125 0.515625 -4.496094 0.710938 -4.714844 C 0.960938 -5.007812 1.214844 -5.378906 1.472656 -5.828125 C 1.71875 -6.277344 1.9375 -6.730469 2.125 -7.1875 C 2.222656 -7.425781 2.296875 -7.660156 2.359375 -7.890625 C 2.429688 -8.113281 2.480469 -8.308594 2.5 -8.492188 C 2.554688 -8.9375 2.558594 -9.265625 2.515625 -9.46875 C 2.464844 -9.671875 2.359375 -9.8125 2.191406 -9.894531 Z M 1.695312 -9.1875 C 1.75 -9.246094 1.78125 -9.300781 1.816406 -9.332031 C 1.855469 -9.367188 1.882812 -9.382812 1.902344 -9.390625 L 1.914062 -9.394531 C 1.9375 -9.398438 1.949219 -9.390625 1.972656 -9.386719 C 1.988281 -9.367188 2.003906 -9.347656 2.035156 -9.320312 C 2.054688 -9.28125 2.074219 -9.253906 2.085938 -9.210938 C 2.101562 -9.148438 2.109375 -9.082031 2.105469 -9 C 2.101562 -8.851562 2.078125 -8.675781 2.042969 -8.464844 C 1.960938 -8.082031 1.820312 -7.628906 1.621094 -7.125 C 1.414062 -6.617188 1.191406 -6.164062 0.945312 -5.761719 C 0.644531 -5.265625 0.453125 -5.011719 0.378906 -4.992188 C 0.355469 -4.988281 0.355469 -4.988281 0.355469 -4.996094 L 0.347656 -5.019531 C 0.320312 -5.125 0.382812 -5.535156 0.550781 -6.28125 C 0.691406 -6.882812 0.875 -7.472656 1.089844 -8.039062 C 1.308594 -8.589844 1.5 -8.980469 1.695312 -9.1875 Z M 1.695312 -9.1875 "/></g></g></g></svg>